<?xml version="1.0" encoding="UTF-8"?>
<svg xmlns="http://www.w3.org/2000/svg" width="410" height="404" viewBox="0 0 410 404" fill="none">
  <defs>
    <linearGradient id="g1" x1="3.75" y1="3.75" x2="406.25" y2="400.25" gradientUnits="userSpaceOnUse">
      <stop stop-color="#41D1FF"/>
      <stop offset="1" stop-color="#BD34FE"/>
    </linearGradient>
    <linearGradient id="g2" x1="33.75" y1="29.75" x2="390.25" y2="366.25" gradientUnits="userSpaceOnUse">
      <stop stop-color="#FFEA83"/>
      <stop offset="0.083" stop-color="#FFDD35"/>
      <stop offset="1" stop-color="#FFA800"/>
    </linearGradient>
  </defs>
  <path d="M399.641 59.524C402.789 51.597 395.601 43.645 387.331 45.83L22.278 142.002C13.145 144.405 11.302 156.525 19.252 161.433L105.052 214.734C108.245 216.731 112.183 217.034 115.621 215.565L334.621 122.565C339.121 120.628 343.878 124.758 342.596 129.464L297.596 298.964C296.55 302.929 298.718 307.09 302.566 308.624L362.566 332.624C370.064 335.607 377.864 330.011 378.065 322.032L399.641 59.524Z" fill="url(#g1)"/>
  <path d="M245.641 29.524C248.789 21.597 241.601 13.645 233.331 15.83L13.278 71.002C4.145 73.405 2.302 85.525 10.252 90.433L96.052 143.734C99.245 145.731 103.183 146.034 106.621 144.565L325.621 51.565C330.121 49.628 334.878 53.758 333.596 58.464L288.596 227.964C287.55 231.929 289.718 236.09 293.566 237.624L353.566 261.624C361.064 264.607 368.864 259.011 369.065 251.032L390.641  -11.476Z" fill="url(#g2)" transform="translate(0,43)"/>
</svg>

